<svg enable-background="new 0 0 24 24" height="512" viewBox="0 0 24 24" width="512" xmlns="http://www.w3.org/2000/svg"><path d="m22.42 10.12-4.74 4.86 1.12 6.87c.05.25-.06.5-.27.64-.11.08-.25.13-.38.13-.11 0-.22-.03-.32-.09l-5.83-3.22v-17.89c.24 0 .49.12.6.35l2.92 6.23 6.53 1c.25.04.45.21.53.44.08.24.02.5-.16.68z" fill="#eceff1"/><path d="m12 1.42v17.89l-5.83 3.22c-.22.13-.49.11-.7-.04-.21-.14-.32-.39-.27-.64l1.12-6.87-4.74-4.86c-.18-.18-.24-.44-.16-.68.08-.23.28-.4.53-.44l6.53-1 2.92-6.23c.11-.23.36-.35.6-.35z" fill="#ffc107"/><path d="m4.952 23.75c-.152 0-.303-.046-.432-.137-.235-.166-.354-.451-.308-.734l1.237-7.586-5.236-5.366c-.196-.201-.263-.495-.174-.762s.32-.46.598-.503l7.205-1.101 3.229-6.88c.149-.317.501-.489.842-.413.343.076.587.381.587.732v18.242c0 .273-.148.524-.387.656l-6.798 3.758c-.114.063-.239.094-.363.094zm-2.646-13.826 4.48 4.592c.167.17.242.41.204.645l-1.05 6.436 5.06-2.797v-14.437l-1.971 4.198c-.106.226-.318.385-.565.422zm9.444 9.318h.01z"/><path d="m12.85 3.311c-.282 0-.552-.159-.68-.431l-.85-1.811c-.176-.375-.014-.821.36-.998.374-.175.822-.015.998.36l.85 1.811c.176.375.014.821-.36.998-.103.048-.211.071-.318.071z"/><path d="m17.455 9.208c-.038 0-.076-.003-.114-.009l-1.977-.302c-.247-.038-.459-.196-.565-.422l-.85-1.811c-.176-.375-.015-.822.36-.998.374-.176.821-.015.998.36l.68 1.448 1.582.242c.409.062.69.445.628.854-.059.373-.378.638-.742.638z"/><path d="m21.854 11.526c-.189 0-.378-.071-.524-.213-.296-.29-.302-.764-.013-1.061l.378-.387-.535-.082c-.41-.062-.691-.445-.628-.854.062-.409.445-.689.854-.628l1.977.302c.278.042.509.237.598.503.089.267.021.561-.174.762l-1.396 1.432c-.147.15-.343.226-.537.226z"/><path d="m17.946 17.833c-.361 0-.679-.261-.739-.629l-.322-1.974c-.038-.235.037-.474.203-.645l1.396-1.432c.291-.295.765-.301 1.061-.013.296.29.302.764.013 1.061l-1.132 1.161.261 1.601c.066.409-.211.794-.62.861-.041.007-.081.009-.121.009z"/><path d="m18.953 24c-.125 0-.25-.031-.363-.094l-1.75-.968c-.363-.2-.494-.657-.293-1.019.2-.363.659-.493 1.019-.293l.398.22-.073-.45c-.067-.409.21-.794.62-.861.406-.068.794.21.861.62l.322 1.974c.046.283-.073.568-.308.734-.13.091-.281.137-.433.137z"/><path d="m13.75 21.124c-.123 0-.247-.03-.362-.094l-1.75-.967c-.362-.2-.494-.656-.293-1.019.2-.363.656-.496 1.019-.293l1.75.967c.362.2.494.656.293 1.019-.137.247-.393.387-.657.387z"/></svg>